<svg xmlns="http://www.w3.org/2000/svg" width="19" height="19" viewBox="0 0 19 19" fill="none">
<g clip-path="url(#clip0_211_1905)">
<path d="M14.193 5.53522C14.0468 5.53241 13.9132 5.6196 13.8541 5.75319C13.7965 5.88819 13.826 6.04429 13.9287 6.14835L16.8002 9.13944H1.22883C1.09945 9.13803 0.978516 9.20553 0.913828 9.31803C0.847734 9.43053 0.847734 9.56835 0.913828 9.68085C0.978516 9.79335 1.09945 9.86085 1.22883 9.85944H16.8002L13.9287 12.8505C13.7909 12.994 13.7965 13.2218 13.9399 13.3596C14.0834 13.4974 14.3112 13.4932 14.449 13.3483L18.1446 9.49944L14.449 5.65053C14.3829 5.57882 14.2901 5.53804 14.193 5.53522Z" fill="white"/>
</g>
<defs>
<clipPath id="clip0_211_1905">
<rect width="18" height="18" fill="white" transform="translate(0.5 0.5)"/>
</clipPath>
</defs>
</svg>