<svg xmlns="http://www.w3.org/2000/svg" width="24" height="24" viewBox="0 0 24 24" fill="none">
<path d="M18.2571 6.71493C18.0621 6.71118 17.8839 6.82743 17.8052 7.00556C17.7283 7.18556 17.7677 7.39368 17.9046 7.53243L21.7333 11.5206H0.971445C0.798945 11.5187 0.637695 11.6087 0.551445 11.7587C0.46332 11.9087 0.46332 12.0924 0.551445 12.2424C0.637695 12.3924 0.798945 12.4824 0.971445 12.4806H21.7333L17.9046 16.4687C17.7208 16.6599 17.7283 16.9637 17.9196 17.1474C18.1108 17.3312 18.4146 17.3256 18.5983 17.1324L23.5258 12.0006L18.5983 6.86868C18.5102 6.77306 18.3864 6.71868 18.2571 6.71493Z" fill="#7E7E7E"/>
</svg>