<svg xmlns="http://www.w3.org/2000/svg" width="19" height="18" viewBox="0 0 19 18" fill="none">
<g clip-path="url(#clip0_211_8971)">
<path d="M1.57972 1.43945C0.987685 1.43945 0.499716 1.92742 0.499716 2.51945V15.8057C0.477216 15.8887 0.485654 15.9759 0.522216 16.0532C0.623466 16.544 1.06222 16.9195 1.57972 16.9195H15.6197C16.1569 16.9195 16.5985 16.5145 16.6772 15.997C16.68 15.9745 16.6871 15.952 16.6885 15.9295C16.6885 15.9224 16.6885 15.914 16.6885 15.907L16.6997 15.8507C16.6997 15.8465 16.6997 15.8437 16.6997 15.8395L18.4885 6.18695L18.4997 6.1532V6.11945C18.4997 5.52742 18.0117 5.03945 17.4197 5.03945V3.95945C17.4197 3.36742 16.9317 2.87945 16.3397 2.87945H6.99097C6.99237 2.88086 6.98815 2.87945 6.97972 2.87945C6.96847 2.87102 6.93612 2.8443 6.87847 2.7782C6.78987 2.67695 6.68722 2.5082 6.57472 2.3282C6.46222 2.1482 6.34128 1.95695 6.19222 1.7882C6.04315 1.61945 5.83503 1.43945 5.53972 1.43945H1.57972ZM1.57972 2.15945H5.53972C5.51722 2.15945 5.56362 2.15945 5.65222 2.2607C5.74081 2.36195 5.84347 2.5307 5.95597 2.7107C6.06847 2.8907 6.19222 3.08195 6.33847 3.2507C6.48472 3.41945 6.6844 3.59945 6.97972 3.59945H16.3397C16.5422 3.59945 16.6997 3.75695 16.6997 3.95945V5.03945H3.37972C2.813 5.03945 2.36159 5.49508 2.32222 6.05195H2.31097L2.29972 6.11945L1.21972 11.947V2.51945C1.21972 2.31695 1.37722 2.15945 1.57972 2.15945ZM3.37972 5.75945H17.4197C17.6222 5.75945 17.7797 5.91695 17.7797 6.11945L16.0135 15.6707L16.0022 15.6932C15.998 15.7073 15.9938 15.7227 15.991 15.7382C15.9867 15.7523 15.9825 15.7677 15.9797 15.7832C15.9797 15.7902 15.9797 15.7987 15.9797 15.8057C15.9797 15.8099 15.9797 15.8127 15.9797 15.817C15.9741 15.8352 15.9713 15.8535 15.9685 15.8732C15.9671 15.8845 15.9699 15.8957 15.9685 15.907C15.9671 15.9224 15.9671 15.9365 15.9685 15.952C15.9235 16.0982 15.7842 16.1995 15.6197 16.1995H1.57972C1.37722 16.1995 1.21972 16.042 1.21972 15.8395L3.00847 6.18695L3.01972 6.1532V6.11945C3.01972 5.91695 3.17722 5.75945 3.37972 5.75945Z" fill="white"/>
</g>
<defs>
<clipPath id="clip0_211_8971">
<rect width="18" height="18" fill="white" transform="translate(0.5)"/>
</clipPath>
</defs>
</svg>