<svg xmlns="http://www.w3.org/2000/svg" width="18" height="19" viewBox="0 0 18 19" fill="none">
<path d="M1.08011 2.30078C0.984631 2.30079 0.893069 2.33872 0.825558 2.40623C0.758047 2.47374 0.720116 2.56531 0.720106 2.66078V8.3568C0.710485 8.40413 0.710485 8.45291 0.720106 8.50023V12.7408C0.720116 12.8363 0.758047 12.9278 0.825558 12.9953C0.893069 13.0628 0.984631 13.1008 1.08011 13.1008H13.3201C13.4156 13.1008 13.5071 13.0628 13.5747 12.9953C13.6422 12.9278 13.6801 12.8363 13.6801 12.7408V9.92406C13.6866 9.88496 13.6866 9.84504 13.6801 9.80594V2.66078C13.6801 2.56531 13.6422 2.47374 13.5747 2.40623C13.5071 2.33872 13.4156 2.30079 13.3201 2.30078H1.08011ZM1.44011 3.02078H12.9601V8.99172L11.0546 7.08625C11.0205 7.05214 10.98 7.02523 10.9353 7.00712C10.8906 6.989 10.8427 6.98004 10.7945 6.98078C10.701 6.98227 10.6117 7.0201 10.5456 7.08625L9.01136 8.62047L5.30518 4.5775C5.2727 4.54203 5.23345 4.51343 5.18973 4.49338C5.14601 4.47333 5.09872 4.46225 5.05065 4.46078C4.95759 4.45814 4.86712 4.49166 4.79823 4.5543L1.44011 7.60727V3.02078ZM10.8001 4.10078C10.6091 4.10078 10.426 4.17664 10.291 4.31166C10.156 4.44669 10.0801 4.62983 10.0801 4.82078C10.0801 5.01174 10.156 5.19487 10.291 5.3299C10.426 5.46492 10.6091 5.54078 10.8001 5.54078C10.9911 5.54078 11.1742 5.46492 11.3092 5.3299C11.4442 5.19487 11.5201 5.01174 11.5201 4.82078C11.5201 4.62983 11.4442 4.44669 11.3092 4.31166C11.1742 4.17664 10.9911 4.10078 10.8001 4.10078ZM14.4001 4.10078V4.82078H14.7601V14.1808H3.24011V13.8208H2.52011V14.5408C2.52012 14.6363 2.55805 14.7278 2.62556 14.7953C2.69307 14.8628 2.78463 14.9008 2.88011 14.9008H15.1201C15.2156 14.9008 15.3071 14.8628 15.3747 14.7953C15.4422 14.7278 15.4801 14.6363 15.4801 14.5408V4.46078C15.4801 4.36531 15.4422 4.27374 15.3747 4.20623C15.3071 4.13872 15.2156 4.10079 15.1201 4.10078H14.4001ZM5.0169 5.32844L8.50229 9.12953L7.66557 9.96625C7.63102 9.99942 7.60344 10.0392 7.58444 10.0831C7.56543 10.1271 7.55539 10.1744 7.55491 10.2223C7.55442 10.2702 7.56349 10.3177 7.5816 10.362C7.5997 10.4064 7.62647 10.4467 7.66034 10.4805C7.69421 10.5144 7.73449 10.5412 7.77884 10.5593C7.82318 10.5774 7.87069 10.5865 7.91859 10.586C7.96648 10.5855 8.0138 10.5755 8.05777 10.5564C8.10173 10.5374 8.14146 10.5099 8.17464 10.4753L9.18643 9.46352C9.24311 9.43139 9.29001 9.38449 9.32214 9.32781L10.8001 7.84984L12.9601 10.0098V12.3808H1.44011V8.57969L5.0169 5.32844ZM16.2001 5.90078V6.62078H16.5601V15.9808H5.04011V15.6208H4.32011V16.3408C4.32012 16.4363 4.35805 16.5278 4.42556 16.5953C4.49307 16.6628 4.58463 16.7008 4.68011 16.7008H16.9201C17.0156 16.7008 17.1071 16.6628 17.1747 16.5953C17.2422 16.5278 17.2801 16.4363 17.2801 16.3408V6.26078C17.2801 6.16531 17.2422 6.07374 17.1747 6.00623C17.1071 5.93872 17.0156 5.90079 16.9201 5.90078H16.2001Z" fill="#FF730F"/>
</svg>