<svg xmlns="http://www.w3.org/2000/svg" width="19" height="18" viewBox="0 0 19 18" fill="none">
<path d="M3.74043 1.43945C2.7506 1.43945 1.94043 2.24963 1.94043 3.23945V14.7595C1.94043 15.7493 2.7506 16.5595 3.74043 16.5595H15.2604C16.2503 16.5595 17.0604 15.7493 17.0604 14.7595V3.23945C17.0604 2.24963 16.2503 1.43945 15.2604 1.43945H3.74043ZM3.74043 2.15945H15.2604C15.8611 2.15945 16.3404 2.6388 16.3404 3.23945V14.7595C16.3404 15.3601 15.8611 15.8395 15.2604 15.8395H3.74043C3.13978 15.8395 2.66043 15.3601 2.66043 14.7595V3.23945C2.66043 2.6388 3.13978 2.15945 3.74043 2.15945ZM8.94285 4.31945C8.84493 4.31945 8.78043 4.38126 8.78043 4.47414V5.60476C8.78043 5.69729 8.84457 5.75945 8.94285 5.75945V5.75875H10.0566C10.1545 5.75875 10.2204 5.69694 10.2204 5.60406V4.47414C10.2204 4.38162 10.1545 4.31945 10.0566 4.31945H8.94285ZM8.95129 7.19945C8.84905 7.19945 8.78043 7.25416 8.78043 7.33516V13.5437C8.78043 13.6247 8.84833 13.6787 8.95129 13.6787V13.6795H10.0489C10.1518 13.6795 10.2204 13.6247 10.2204 13.5437V7.33516C10.2204 7.25416 10.1522 7.19945 10.0489 7.19945H8.95129Z" fill="#212121"/>
</svg>