<svg xmlns="http://www.w3.org/2000/svg" width="18" height="19" viewBox="0 0 18 19" fill="none">
<path d="M0 3.01953V3.37953V15.9795H18V3.01953H0ZM0.72 3.73953H17.28V4.64094C17.1286 4.77292 10.7323 10.3476 10.2002 10.8109C9.73341 11.2173 9.25808 11.2995 9 11.2995C8.74218 11.2995 8.26666 11.2166 7.79977 10.8102C7.26768 10.3469 0.871423 4.77221 0.72 4.64023V3.73953ZM0.72 5.59508C1.59869 6.36094 6.82771 10.9187 7.32656 11.353C7.93895 11.8861 8.5875 12.0195 9 12.0195C9.41224 12.0195 10.061 11.8869 10.6734 11.3537C10.7917 11.2507 11.6728 10.4825 12.24 9.9882V14.1795L14.04 12.8295L15.84 14.1795V6.85086C16.3838 6.37692 17.0885 5.76272 17.28 5.59578V15.2595H0.72V5.59508ZM15.12 7.47805V12.7395L14.04 11.9295L12.96 12.7395V9.36102C13.9036 8.53867 14.1562 8.31805 15.12 7.47805Z" fill="#FF730F"/>
</svg>