<svg width="18" height="19" viewBox="0 0 18 19" fill="none" xmlns="http://www.w3.org/2000/svg">
<g id="Icons">
<path id="Vector" d="M14.0218 1.58126C13.742 1.59673 12.8645 1.62345 11.5285 2.24923C10.1926 2.87361 8.35883 4.08861 5.97383 6.47361C3.58883 8.85861 2.37242 10.6938 1.74805 12.0297C1.12367 13.3642 1.09555 14.2417 1.08008 14.5216V14.5399C1.08008 14.8633 1.2432 15.0841 1.43164 15.3316C1.62008 15.5777 1.86055 15.8294 2.11227 16.0713C2.61711 16.555 3.15711 16.9881 3.40461 17.1639C3.97414 17.5717 4.64211 17.4761 4.94586 17.0486C5.16383 16.7449 6.81617 14.2347 7.06367 13.8255C7.31539 13.4444 7.21414 12.9916 6.98492 12.5711C6.81195 12.2547 6.32539 11.4081 6.18336 11.162C6.30711 10.9736 6.78523 10.2719 8.27867 8.77845L8.28008 8.77704V8.77564C9.77914 7.25126 10.478 6.79564 10.6595 6.68173C10.8999 6.81954 11.7324 7.29908 12.0601 7.47908C12.4595 7.71814 12.9207 7.79548 13.3046 7.57611L13.3088 7.5747L13.3116 7.57189C13.5043 7.45658 14.2201 6.99111 14.9541 6.50876C15.3212 6.26829 15.6854 6.02783 15.9751 5.83658C16.2605 5.64533 16.4532 5.51736 16.5488 5.44564C16.9749 5.14189 17.072 4.47533 16.6641 3.90439C16.4898 3.66111 16.058 3.11126 15.5729 2.6022C15.331 2.34767 15.0779 2.10579 14.829 1.91736C14.5815 1.73033 14.3537 1.56439 14.0218 1.58126ZM14.0584 2.29986C14.0246 2.30126 14.199 2.34345 14.3945 2.49111C14.5913 2.64017 14.8248 2.86095 15.0512 3.09861C15.504 3.57392 15.9371 4.12658 16.0777 4.32345C16.3013 4.63564 16.1452 4.84939 16.1312 4.85923L16.127 4.86345L16.1227 4.86486C16.0918 4.89017 15.864 5.04486 15.5757 5.23611C15.2888 5.42736 14.926 5.66783 14.559 5.90689C13.8305 6.38501 13.0754 6.87439 12.9488 6.95173H12.9474C12.8912 6.98267 12.6605 6.99814 12.4299 6.86033L12.4243 6.85611L12.4173 6.85329C12.0882 6.67329 10.817 5.94345 10.817 5.94345L10.6384 5.84079L10.4598 5.94345C10.4598 5.94345 9.51898 6.48908 7.76961 8.26939C7.76961 8.26939 7.76961 8.27079 7.7682 8.27079C7.7682 8.27079 7.7682 8.27079 7.7682 8.2722C6.02023 10.0188 5.44789 10.9511 5.44789 10.9511L5.3382 11.1325L5.44367 11.3167C5.44367 11.3167 6.17352 12.588 6.35211 12.917C6.50117 13.1899 6.4618 13.4303 6.4632 13.4261L6.45898 13.4331L6.45477 13.4416C6.31133 13.6806 4.45648 16.4945 4.35945 16.631C4.34961 16.645 4.13445 16.8011 3.82367 16.5775C3.62961 16.4397 3.08258 16.0052 2.61008 15.5524C2.37523 15.3245 2.15445 15.0925 2.00398 14.8942C1.85492 14.6974 1.80289 14.5202 1.80289 14.5413C1.81836 14.2192 1.8268 13.5597 2.40055 12.3349C2.97992 11.0945 4.14289 9.32267 6.48289 6.98267C8.82289 4.64267 10.5934 3.4797 11.8337 2.90033C13.074 2.32095 13.7391 2.31673 14.0584 2.29986Z" fill="#FF730F"/>
</g>
</svg>
